<?xml version="1.0" standalone="no"?><!DOCTYPE svg PUBLIC "-//W3C//DTD SVG 1.1//EN" "http://www.w3.org/Graphics/SVG/1.1/DTD/svg11.dtd"><svg t="1506501732225" class="icon" style="" viewBox="0 0 1024 1024" version="1.1" xmlns="http://www.w3.org/2000/svg" p-id="7054" xmlns:xlink="http://www.w3.org/1999/xlink" width="128" height="128"><defs><style type="text/css"></style></defs><path d="M282.396444 147.911111L147.911111 282.396444v48.241778l182.727111-182.727111h-48.241778zM448.512 147.911111L147.911111 448.512v48.241778L496.753778 147.911111h-48.241778zM614.627556 147.911111L147.911111 614.627556v48.241777L662.869333 147.911111h-48.241777zM813.738667 147.911111h-32.995556L147.911111 780.743111v32.995556a62.350222 62.350222 0 0 0 1.592889 13.653333L827.392 149.504a62.122667 62.122667 0 0 0-13.653333-1.592889zM876.088889 218.680889L218.680889 876.088889h48.241778L876.088889 266.922667V218.680889zM876.088889 384.568889L384.796444 876.088889h48.241778L876.088889 432.810667V384.568889zM876.088889 550.684444L550.684444 876.088889h48.241778L876.088889 598.926222V550.684444zM876.088889 716.8l-159.288889 159.288889h48.241778l111.047111-111.047111V716.8z" fill="#b6b6af" p-id="7055"></path></svg>